<svg width="414" height="428" viewBox="0 0 414 428" fill="none" xmlns="http://www.w3.org/2000/svg">
<path fill-rule="evenodd" clip-rule="evenodd" d="M417 66.5C417 85.9392 408.659 103.43 395.361 115.59C401.261 120.634 405 128.13 405 136.5C405 151.688 392.688 164 377.5 164C362.312 164 350 151.688 350 136.5C350 135.314 350.075 134.146 350.221 133C313.622 132.849 284 103.134 284 66.5C284 29.7729 313.773 0 350.5 0C387.227 0 417 29.7729 417 66.5ZM26 318C53.062 318 75 296.062 75 269C75 241.938 53.062 220 26 220C22.3552 220 18.8032 220.398 15.3855 221.153C20.657 216.659 24 209.97 24 202.5C24 188.969 13.031 178 -0.5 178C-14.031 178 -25 188.969 -25 202.5C-25 216.031 -14.031 227 -0.5 227C-0.405518 227 -0.311035 227 -0.216797 226.999C-0.0908203 226.997 0.0351562 226.995 0.160645 226.991C0.291504 226.988 0.421875 226.983 0.552246 226.978C0.63623 226.974 0.719971 226.97 0.803467 226.966C-13.4578 235.533 -23 251.152 -23 269C-23 296.062 -1.06201 318 26 318ZM90 332.5C90 340.508 83.5081 347 75.5 347C67.4919 347 61 340.508 61 332.5C61 324.492 67.4919 318 75.5 318C83.5081 318 90 324.492 90 332.5ZM49 133C55.6274 133 61 127.627 61 121C61 114.373 55.6274 109 49 109C42.3726 109 37 114.373 37 121C37 127.627 42.3726 133 49 133ZM367 237C376.389 237 384 229.389 384 220C384 210.611 376.389 203 367 203C357.611 203 350 210.611 350 220C350 229.389 357.611 237 367 237ZM405 203C405 208.523 400.523 213 395 213C389.477 213 385 208.523 385 203C385 197.477 389.477 193 395 193C400.523 193 405 197.477 405 203ZM349.5 411C359.165 411 367 403.165 367 393.5C367 389.36 365.562 385.555 363.159 382.559C367.417 385.366 372.518 387 378 387C380.422 387 382.77 386.681 385.003 386.083C385.001 386.221 385 386.361 385 386.5C385 401.135 396.865 413 411.5 413C426.135 413 438 401.135 438 386.5C438 371.865 426.135 360 411.5 360C409.253 360 407.072 360.28 404.988 360.806C404.994 360.623 404.997 360.44 404.999 360.257C405 360.172 405 360.086 405 360C405 345.088 392.912 333 378 333C363.088 333 351 345.088 351 360C351 367.043 353.697 373.456 358.114 378.263C355.571 376.823 352.631 376 349.5 376C339.835 376 332 383.835 332 393.5C332 403.165 339.835 411 349.5 411ZM84 393.5C84 412.554 68.5537 428 49.5 428C30.4463 428 15 412.554 15 393.5C15 374.446 30.4463 359 49.5 359C68.5537 359 84 374.446 84 393.5ZM24.5 92C38.5833 92 50 80.5833 50 66.5C50 64.4802 49.7651 62.5154 49.3213 60.6311C56.0073 59.1196 61 53.1428 61 46C61 37.7158 54.2842 31 46 31C39.1064 31 33.2988 35.6504 31.5435 41.9851C29.3064 41.3435 26.9434 41 24.5 41C10.4167 41 -1 52.4167 -1 66.5C-1 80.5833 10.4167 92 24.5 92ZM115 76.5C115 85.0603 108.06 92 99.5 92C90.9397 92 84 85.0603 84 76.5C84 67.9397 90.9397 61 99.5 61C108.06 61 115 67.9397 115 76.5ZM99.5 217C110.27 217 119 208.27 119 197.5C119 186.73 110.27 178 99.5 178C88.7305 178 80 186.73 80 197.5C80 208.27 88.7305 217 99.5 217ZM332 306C332 312.627 326.627 318 320 318C313.373 318 308 312.627 308 306C308 299.373 313.373 294 320 294C326.627 294 332 299.373 332 306ZM109.5 398C120.27 398 129 389.27 129 378.5C129 367.73 120.27 359 109.5 359C98.7305 359 90 367.73 90 378.5C90 389.27 98.7305 398 109.5 398Z" fill="#364F6B"/>
</svg>
