<svg width="1440" height="706" viewBox="0 0 1440 706" fill="none" xmlns="http://www.w3.org/2000/svg">
<path fill-rule="evenodd" clip-rule="evenodd" d="M508 41.5C508 64.4198 489.42 83 466.5 83C459.088 83 452.13 81.0568 446.107 77.6521C443.461 86.5284 435.236 93 425.5 93C413.626 93 404 83.3741 404 71.5C404 59.6259 413.626 50 425.5 50C425.624 50 425.748 50.0011 425.872 50.0032C425.3 47.2584 425 44.4143 425 41.5C425 18.5802 443.58 0 466.5 0C489.42 0 508 18.5802 508 41.5ZM880.972 45C880.991 44.5023 881 44.0022 881 43.5C881 21.6848 863.315 4 841.5 4C819.685 4 802 21.6848 802 43.5C802 57.8088 809.608 70.3406 821 77.2706V93.0045C806.043 93.2711 794 105.479 794 120.5C794 135.521 806.043 147.729 821 147.996V396C809.954 396 801 404.954 801 416C801 427.046 809.954 436 821 436V439.135C794.887 447.571 776 472.08 776 501C776 511.831 778.649 522.043 783.334 531.024C778.442 533.052 775 537.874 775 543.5C775 550.956 781.044 557 788.5 557C793.12 557 797.199 554.679 799.632 551.139C805.881 556.301 813.111 560.316 821 562.865V674H1448V45H880.972ZM733 650C733 680.928 707.928 706 677 706C646.072 706 621 680.928 621 650C603.327 650 589 635.673 589 618C589 600.327 603.327 586 621 586C632.738 586 643.001 592.32 648.569 601.744C656.903 596.823 666.622 594 677 594C707.928 594 733 619.072 733 650ZM760.5 664C768.508 664 775 657.508 775 649.5C775 641.492 768.508 635 760.5 635C752.492 635 746 641.492 746 649.5C746 657.508 752.492 664 760.5 664ZM754 328C776.091 328 794 310.091 794 288C794 283.345 793.205 278.876 791.743 274.721C802.553 269.442 810 258.341 810 245.5C810 227.551 795.449 213 777.5 213C759.551 213 745 227.551 745 245.5C745 246.674 745.062 247.833 745.184 248.975C727.334 252.99 714 268.938 714 288C714 310.091 731.909 328 754 328ZM776 359.5C776 368.06 769.06 375 760.5 375C751.94 375 745 368.06 745 359.5C745 350.94 751.94 344 760.5 344C769.06 344 776 350.94 776 359.5ZM745 540C745 554.359 733.359 566 719 566C704.641 566 693 554.359 693 540C693 525.641 704.641 514 719 514C733.359 514 745 525.641 745 540ZM10.5 165C36.1812 165 57 144.181 57 118.5C57 113.452 56.1958 108.593 54.7085 104.042C58.0439 105.925 61.8965 107 66 107C78.7025 107 89 96.7025 89 84C89 71.2975 78.7025 61 66 61C53.2975 61 43 71.2975 43 84C43 84.4287 43.0117 84.8546 43.0349 85.2775C34.6488 77.0639 23.1657 72 10.5 72C-15.1812 72 -36 92.8188 -36 118.5C-36 144.181 -15.1812 165 10.5 165ZM104.896 669.87C103.427 690.069 86.5739 706 66 706C44.4609 706 27 688.539 27 667C27 645.461 44.4609 628 66 628C74.9018 628 83.1069 630.982 89.6709 636.002C92.6653 621.723 105.33 611 120.5 611C137.897 611 152 625.103 152 642.5C152 659.897 137.897 674 120.5 674C114.823 674 109.496 672.498 104.896 669.87ZM30 585.5C30 594.613 22.6127 602 13.5 602C4.3873 602 -3 594.613 -3 585.5C-3 576.387 4.3873 569 13.5 569C22.6127 569 30 576.387 30 585.5ZM79 314C79 328.359 67.3594 340 53 340C38.6406 340 27 328.359 27 314C27 299.641 38.6406 288 53 288C67.3594 288 79 299.641 79 314ZM128 434C142.359 434 154 422.359 154 408C154 393.641 142.359 382 128 382C113.641 382 102 393.641 102 408C102 422.359 113.641 434 128 434ZM182 112.5C182 133.763 164.763 151 143.5 151C122.237 151 105 133.763 105 112.5C105 98.3636 112.619 86.0067 123.974 79.3115C107.617 73.4193 96 58.4883 96 41C96 18.3563 115.476 0 139.5 0C163.524 0 183 18.3563 183 41C183 56.8682 173.436 70.6309 159.444 77.4464C172.75 83.5084 182 96.924 182 112.5ZM312 625.5C312 660.018 282.227 688 245.5 688C208.773 688 179 660.018 179 625.5C179 590.982 208.773 563 245.5 563C282.227 563 312 590.982 312 625.5ZM598 113C612.359 113 624 102.031 624 88.5C624 74.969 612.359 64 598 64C583.641 64 572 74.969 572 88.5C572 102.031 583.641 113 598 113Z" fill="#364F6B"/>
</svg>
