<svg width="1437" height="707" viewBox="0 0 1437 707" fill="none" xmlns="http://www.w3.org/2000/svg">
<path fill-rule="evenodd" clip-rule="evenodd" d="M762 41.5C762 64.4198 743.42 83 720.5 83C697.58 83 679 64.4198 679 41.5C679 18.5802 697.58 0 720.5 0C743.42 0 762 18.5802 762 41.5ZM632 40H0V669H632V607.857C640.602 616.003 652.218 621 665 621C691.51 621 713 599.51 713 573C713 546.49 691.51 525 665 525C652.218 525 640.602 529.997 632 538.143V296.659C637.808 304.738 647.29 310 658 310C675.673 310 690 295.673 690 278C690 260.327 675.673 246 658 246C652.201 246 646.762 247.543 642.071 250.24C643.936 246.916 645 243.082 645 239C645 229.881 639.693 222.002 632 218.282V149C650.225 149 665 134.225 665 116C665 97.7746 650.225 83 632 83V40ZM718 640.5C718 651.27 709.27 660 698.5 660C687.73 660 679 651.27 679 640.5C679 629.73 687.73 621 698.5 621C709.27 621 718 629.73 718 640.5ZM713 149C725.703 149 736 138.703 736 126C736 113.297 725.703 103 713 103C700.297 103 690 113.297 690 126C690 138.703 700.297 149 713 149ZM762 463C762 493.928 736.928 519 706 519C675.072 519 650 493.928 650 463C650 448.845 655.252 435.917 663.913 426.057C655.844 423.482 650 415.923 650 407C650 395.954 658.954 387 670 387C681.046 387 690 395.954 690 407C690 407.799 689.953 408.586 689.862 409.36C694.972 407.825 700.39 407 706 407C736.928 407 762 432.072 762 463ZM690 149C690 154.523 685.523 159 680 159C674.477 159 670 154.523 670 149C670 143.477 674.477 139 680 139C685.523 139 690 143.477 690 149ZM751 278C784.689 278 812 250.689 812 217C812 204.107 808 192.149 801.174 182.298C804.401 184.022 808.086 185 812 185C824.703 185 835 174.703 835 162C835 149.297 824.703 139 812 139C799.297 139 789 149.297 789 162C789 165.071 789.602 168.002 790.694 170.681C780.026 161.529 766.158 156 751 156C717.311 156 690 183.311 690 217C690 250.689 717.311 278 751 278ZM812 57C812 66.3888 804.389 74 795 74C785.611 74 778 66.3888 778 57C778 47.6112 785.611 40 795 40C804.389 40 812 47.6112 812 57ZM797 620.5C797 637.345 783.345 651 766.5 651C749.655 651 736 637.345 736 620.5C736 603.655 749.655 590 766.5 590C783.345 590 797 603.655 797 620.5ZM1440.5 76C1459.55 76 1475 60.5538 1475 41.5C1475 22.4462 1459.55 7 1440.5 7C1425.51 7 1412.76 16.5542 1408 29.9034C1400.35 22.533 1389.96 18 1378.5 18C1355.03 18 1336 37.0279 1336 60.5C1336 83.9721 1355.03 103 1378.5 103C1398.95 103 1416.03 88.5565 1420.08 69.3142C1425.8 73.5171 1432.86 76 1440.5 76ZM1403 162C1412.94 162 1421 153.941 1421 144C1421 134.059 1412.94 126 1403 126C1393.06 126 1385 134.059 1385 144C1385 153.941 1393.06 162 1403 162ZM1408 620.5C1408 632.926 1397.93 643 1385.5 643C1373.07 643 1363 632.926 1363 620.5C1363 608.074 1373.07 598 1385.5 598C1397.93 598 1408 608.074 1408 620.5ZM1324.5 707C1345.76 707 1363 689.763 1363 668.5C1363 647.237 1345.76 630 1324.5 630C1303.24 630 1286 647.237 1286 668.5C1286 689.763 1303.24 707 1324.5 707Z" fill="#364F6B"/>
</svg>
