<svg width="444" height="394" viewBox="0 0 444 394" fill="none" xmlns="http://www.w3.org/2000/svg">
<path fill-rule="evenodd" clip-rule="evenodd" d="M394.774 98.4522C421.961 98.4522 444 76.4129 444 49.2261C444 22.0393 421.961 0 394.774 0C367.587 0 345.548 22.0393 345.548 49.2261C345.548 54.7173 346.447 59.9985 348.106 64.9306C347.28 64.7595 346.424 64.6696 345.548 64.6696C338.618 64.6696 333 70.2874 333 77.2174C333 84.1474 338.618 89.7652 345.548 89.7652C351.053 89.7652 355.73 86.2203 357.42 81.2886C366.448 91.7966 379.834 98.4522 394.774 98.4522ZM119.687 98.4522C142.076 98.4522 160.226 80.3022 160.226 57.913C160.226 35.5239 142.076 17.3739 119.687 17.3739C97.2978 17.3739 79.1478 35.5239 79.1478 57.913C79.1478 80.3022 97.2978 98.4522 119.687 98.4522ZM99.4174 297.287C110.612 297.287 119.687 288.212 119.687 277.017C119.687 276.657 119.678 276.3 119.659 275.944C129.734 272.862 137.061 263.489 137.061 252.404C137.061 238.811 126.041 227.791 112.448 227.791C98.8544 227.791 87.8348 238.811 87.8348 252.404C87.8348 254.934 88.2164 257.374 88.9251 259.671C83.0642 263.224 79.1478 269.663 79.1478 277.017C79.1478 288.212 88.2228 297.287 99.4174 297.287ZM378.365 360.991C378.365 379.116 363.672 393.809 345.548 393.809C327.423 393.809 312.73 379.116 312.73 360.991C312.73 342.867 327.423 328.174 345.548 328.174C363.672 328.174 378.365 342.867 378.365 360.991ZM79.1477 164.087C79.1477 173.842 72.5696 182.061 63.6072 184.55C69.6584 191.09 73.3565 199.839 73.3565 209.452C73.3565 229.709 56.9351 246.13 36.6783 246.13C16.4214 246.13 0 229.709 0 209.452C0 189.195 16.4214 172.774 36.6783 172.774C37.3066 172.774 37.9312 172.79 38.5518 172.821C37.3482 170.157 36.6782 167.2 36.6782 164.087C36.6782 152.359 46.1853 142.852 57.913 142.852C69.6406 142.852 79.1477 152.359 79.1477 164.087ZM404.426 198.352C404.426 206.923 400.764 214.638 394.919 220.018C400.561 222.888 404.426 228.749 404.426 235.513C404.426 245.108 396.647 252.887 387.052 252.887C377.457 252.887 369.678 245.108 369.678 235.513C369.678 232.662 370.365 229.971 371.582 227.597C356.927 225.909 345.548 213.459 345.548 198.352C345.548 182.093 358.728 168.913 374.987 168.913C391.246 168.913 404.426 182.093 404.426 198.352ZM378.365 150.574C378.365 154.839 374.908 158.296 370.644 158.296C366.379 158.296 362.922 154.839 362.922 150.574C362.922 146.309 366.379 142.852 370.644 142.852C374.908 142.852 378.365 146.309 378.365 150.574ZM119.204 386.087C130.132 386.087 138.991 377.228 138.991 366.3C138.991 355.372 130.132 346.513 119.204 346.513C108.276 346.513 99.4174 355.372 99.4174 366.3C99.4174 377.228 108.276 386.087 119.204 386.087ZM300.183 50.6739C300.183 55.2051 296.509 58.8783 291.978 58.8783C287.447 58.8783 283.774 55.2051 283.774 50.6739C283.774 46.1428 287.447 42.4696 291.978 42.4696C296.509 42.4696 300.183 46.1428 300.183 50.6739ZM341.687 309.835C350.749 309.835 358.096 302.488 358.096 293.426C358.096 284.364 350.749 277.017 341.687 277.017C332.625 277.017 325.278 284.364 325.278 293.426C325.278 302.488 332.625 309.835 341.687 309.835Z" fill="#364F6B"/>
</svg>
