<svg width="1409" height="652" viewBox="0 0 1409 652" fill="none" xmlns="http://www.w3.org/2000/svg">
<path fill-rule="evenodd" clip-rule="evenodd" d="M1409 0H747C716.072 0 691 25.0721 691 56C691 86.9279 716.072 112 747 112V629H1409V0ZM691.5 629C720.495 629 744 605.495 744 576.5C744 547.505 720.495 524 691.5 524C662.505 524 639 547.505 639 576.5C639 605.495 662.505 629 691.5 629ZM639 111.5C639 121.717 630.717 130 620.5 130C614.141 130 608.531 126.792 605.201 121.905C595.634 136.421 579.185 146 560.5 146C541.952 146 525.608 136.561 516.01 122.224C513.444 123.976 510.342 125 507 125C498.163 125 491 117.837 491 109C491 100.163 498.163 93 507 93H507.002C507.001 92.8335 507 92.6668 507 92.5C507 62.9528 530.953 39 560.5 39C590.047 39 614 62.9528 614 92.5C614 93.0634 613.991 93.6247 613.974 94.1839C616.003 93.4187 618.203 93 620.5 93C630.717 93 639 101.283 639 111.5ZM639.5 285C671.809 285 698 258.809 698 226.5C698 225.075 697.949 223.663 697.849 222.263C709.976 219.398 719 208.503 719 195.5C719 180.312 706.688 168 691.5 168C683.346 168 676.021 171.549 670.985 177.187C661.895 171.371 651.091 168 639.5 168C607.191 168 581 194.191 581 226.5C581 258.809 607.191 285 639.5 285ZM717.5 508C732.136 508 744 496.136 744 481.5C744 466.864 732.136 455 717.5 455C702.864 455 691 466.864 691 481.5C691 496.136 702.864 508 717.5 508ZM596.086 511.358C606.724 505.88 614 494.79 614 482C614 463.775 599.225 449 581 449C562.775 449 548 463.775 548 482C548 482.364 548.006 482.726 548.018 483.087C521.792 484.63 501 506.387 501 533C501 560.614 523.386 583 551 583C578.614 583 601 560.614 601 533C601 525.247 599.235 517.906 596.086 511.358ZM636.5 415C659.42 415 678 396.42 678 373.5C678 350.58 659.42 332 636.5 332C613.58 332 595 350.58 595 373.5C595 396.42 613.58 415 636.5 415ZM664 55.5C664 66.2696 655.27 75 644.5 75C633.73 75 625 66.2696 625 55.5C625 44.7304 633.73 36 644.5 36C655.27 36 664 44.7304 664 55.5ZM40 451C40 459.837 32.8366 467 24 467C15.1634 467 8 459.837 8 451C8 442.163 15.1634 435 24 435C32.8366 435 40 442.163 40 451ZM53 125C82.2711 125 106 101.271 106 72C106 42.7289 82.2711 19 53 19C23.7289 19 0 42.7289 0 72C0 101.271 23.7289 125 53 125ZM36 150C36 159.941 27.9411 168 18 168C8.05887 168 0 159.941 0 150C0 140.059 8.05887 132 18 132C27.9411 132 36 140.059 36 150ZM37.5 604C43.0604 604 48.3381 602.79 53.0842 600.618C53.0283 601.572 53 602.533 53 603.5C53 630.286 74.7142 652 101.5 652C128.286 652 150 630.286 150 603.5C150 590.946 145.23 579.507 137.405 570.894C144.85 567.368 150 559.786 150 551C150 538.85 140.15 529 128 529C115.85 529 106 538.85 106 551C106 552.452 106.141 553.872 106.409 555.245C104.795 555.083 103.157 555 101.5 555C91.6508 555 82.4874 557.936 74.837 562.98C73.0627 543.92 57.0237 529 37.5 529C16.7893 529 0 545.789 0 566.5C0 587.211 16.7893 604 37.5 604ZM480 39C480 56.6731 465.673 71 448 71C430.327 71 416 56.6731 416 39C416 21.3269 430.327 7 448 7C465.673 7 480 21.3269 480 39ZM389.5 39C398.06 39 405 32.0604 405 23.5C405 14.9396 398.06 8 389.5 8C380.94 8 374 14.9396 374 23.5C374 32.0604 380.94 39 389.5 39Z" fill="#364F6B"/>
</svg>
