<svg width="414" height="411" viewBox="0 0 414 411" fill="none" xmlns="http://www.w3.org/2000/svg">
<path fill-rule="evenodd" clip-rule="evenodd" d="M101.5 37C111.717 37 120 28.7173 120 18.5C120 8.28273 111.717 0 101.5 0C91.2827 0 83 8.28273 83 18.5C83 28.7173 91.2827 37 101.5 37ZM6 91C6.56889 91 7.13501 90.9881 7.69812 90.9646C6.59986 93.9353 6 97.1476 6 100.5C6 115.688 18.3122 128 33.5 128C48.6878 128 61 115.688 61 100.5C61 87.2089 51.571 76.12 39.0372 73.5577C41.3112 70.2337 43.0966 66.5491 44.2899 62.6073C47.233 65.3335 51.1719 67 55.5 67C64.6127 67 72 59.6127 72 50.5C72 41.3873 64.6127 34 55.5 34C51.0521 34 47.0152 35.76 44.0478 38.6215C38.8353 22.5889 23.771 11 6 11C-16.0914 11 -34 28.9086 -34 51C-34 73.0914 -16.0914 91 6 91ZM39 411C57.2254 411 72 396.225 72 378C72 359.775 57.2254 345 39 345C20.7746 345 6 359.775 6 378C6 396.225 20.7746 411 39 411ZM356.5 91C373.897 91 388 76.897 388 59.5C388 42.103 373.897 28 356.5 28C339.103 28 325 42.103 325 59.5C325 76.897 339.103 91 356.5 91ZM43 236C52.9411 236 61 227.941 61 218C61 208.059 52.9411 200 43 200C33.0589 200 25 208.059 25 218C25 227.941 33.0589 236 43 236ZM427 360C427 388.167 404.167 411 376 411C347.833 411 325 388.167 325 360C325 331.833 347.833 309 376 309C404.167 309 427 331.833 427 360ZM341.5 309C350.613 309 358 301.613 358 292.5C358 283.387 350.613 276 341.5 276C332.387 276 325 283.387 325 292.5C325 301.613 332.387 309 341.5 309ZM104 308C104 314.627 98.6274 320 92 320C85.3726 320 80 314.627 80 308C80 301.373 85.3726 296 92 296C98.6274 296 104 301.373 104 308ZM52 297C55.3137 297 58 294.314 58 291C58 287.686 55.3137 285 52 285C48.6863 285 46 287.686 46 291C46 294.314 48.6863 297 52 297ZM427 79.5C427 86.4036 421.404 92 414.5 92C407.596 92 402 86.4036 402 79.5C402 72.5964 407.596 67 414.5 67C421.404 67 427 72.5964 427 79.5ZM388 199.5C388 209.717 379.717 218 369.5 218C359.283 218 351 209.717 351 199.5C351 189.283 359.283 181 369.5 181C379.717 181 388 189.283 388 199.5ZM78.5 411C82.0899 411 85 408.09 85 404.5C85 400.91 82.0899 398 78.5 398C74.9101 398 72 400.91 72 404.5C72 408.09 74.9101 411 78.5 411Z" fill="#364F6B"/>
</svg>
