<svg width="1636" height="5633" viewBox="0 0 1636 5633" fill="none" xmlns="http://www.w3.org/2000/svg">
<rect x="113" width="1440" height="5516" fill="white"/>
<circle cx="605.5" cy="310.5" r="96.5" stroke="#364F6B" stroke-opacity="0.5" stroke-width="4"/>
<circle cx="375" cy="1191" r="85" stroke="#364F6B" stroke-opacity="0.5" stroke-width="4"/>
<circle cx="288" cy="2736" r="85" stroke="#364F6B" stroke-opacity="0.5" stroke-width="4"/>
<circle cx="1362.5" cy="937.5" r="69.5" stroke="#364F6B" stroke-opacity="0.5" stroke-width="4"/>
<circle cx="406" cy="161" r="29" stroke="#364F6B" stroke-opacity="0.5" stroke-width="4"/>
<circle cx="1009.5" cy="226.5" r="19.5" stroke="#364F6B" stroke-opacity="0.5" stroke-width="4"/>
<circle cx="1152.5" cy="1757.5" r="19.5" stroke="#364F6B" stroke-opacity="0.5" stroke-width="4"/>
<circle cx="528.5" cy="2603.5" r="19.5" stroke="#364F6B" stroke-opacity="0.5" stroke-width="4"/>
<circle cx="1173.5" cy="3649.5" r="19.5" stroke="#364F6B" stroke-opacity="0.5" stroke-width="4"/>
<circle cx="704.5" cy="268.5" r="39.5" stroke="#364F6B" stroke-opacity="0.5" stroke-width="4"/>
<circle cx="223.5" cy="222.5" r="62.5" stroke="#364F6B" stroke-opacity="0.5" stroke-width="4"/>
<circle cx="217" cy="1031" r="194" stroke="#364F6B" stroke-opacity="0.5" stroke-width="4"/>
<circle cx="1416" cy="1736" r="194" stroke="#364F6B" stroke-opacity="0.5" stroke-width="4"/>
<circle cx="1424.5" cy="2149.5" r="126.5" stroke="#364F6B" stroke-opacity="0.5" stroke-width="4"/>
<circle cx="684" cy="2875" r="194" stroke="#364F6B" stroke-opacity="0.5" stroke-width="4"/>
<circle cx="264" cy="4459" r="262" stroke="#364F6B" stroke-opacity="0.5" stroke-width="4"/>
<circle cx="1372" cy="5369" r="262" stroke="#364F6B" stroke-opacity="0.5" stroke-width="4"/>
<circle cx="686.5" cy="4722.5" r="117.5" stroke="#364F6B" stroke-opacity="0.5" stroke-width="4"/>
<circle cx="218.5" cy="5059.5" r="43.5" stroke="#364F6B" stroke-opacity="0.5" stroke-width="4"/>
<circle cx="567.5" cy="5079.5" r="99.5" stroke="#364F6B" stroke-opacity="0.5" stroke-width="4"/>
<circle cx="340" cy="4878" r="74" stroke="#364F6B" stroke-opacity="0.5" stroke-width="4"/>
<circle cx="1213" cy="4810" r="165" stroke="#364F6B" stroke-opacity="0.5" stroke-width="4"/>
<circle cx="315" cy="5335" r="149" stroke="#364F6B" stroke-opacity="0.5" stroke-width="4"/>
<circle cx="625" cy="5516" r="95" stroke="#364F6B" stroke-opacity="0.5" stroke-width="4"/>
<circle cx="933" cy="5105" r="154" stroke="#364F6B" stroke-opacity="0.5" stroke-width="4"/>
<circle r="39" transform="matrix(1 0 0 -1 853 5378)" stroke="#364F6B" stroke-opacity="0.5" stroke-width="4"/>
<circle cx="1496.5" cy="4907.5" r="44.5" stroke="#364F6B" stroke-opacity="0.5" stroke-width="4"/>
<circle cx="438" cy="3610" r="194" stroke="#364F6B" stroke-opacity="0.5" stroke-width="4"/>
<circle cx="942.5" cy="4415.5" r="163.5" stroke="#364F6B" stroke-opacity="0.5" stroke-width="4"/>
<circle cx="1450" cy="4356" r="101" stroke="#364F6B" stroke-opacity="0.5" stroke-width="4"/>
<circle cx="1423.5" cy="3987.5" r="208.5" stroke="#364F6B" stroke-opacity="0.5" stroke-width="4"/>
<circle cx="413" cy="1661" r="269" stroke="#364F6B" stroke-opacity="0.5" stroke-width="4"/>
<circle cx="718.5" cy="2232.5" r="209.5" stroke="#364F6B" stroke-opacity="0.5" stroke-width="4"/>
<circle cx="204.5" cy="2366.5" r="168.5" stroke="#364F6B" stroke-opacity="0.5" stroke-width="4"/>
<circle cx="1152.5" cy="2496.5" r="180.5" stroke="#364F6B" stroke-opacity="0.5" stroke-width="4"/>
<circle cx="1329.5" cy="3070.5" r="280.5" stroke="#364F6B" stroke-opacity="0.5" stroke-width="4"/>
<circle cx="942" cy="3911" r="228" stroke="#364F6B" stroke-opacity="0.5" stroke-width="4"/>
<circle cx="271.5" cy="4042.5" r="96.5" stroke="#364F6B" stroke-opacity="0.5" stroke-width="4"/>
<circle cx="1362" cy="269" r="194" stroke="#364F6B" stroke-opacity="0.5" stroke-width="4"/>
<circle cx="1401" cy="1390" r="81" stroke="#364F6B" stroke-opacity="0.5" stroke-width="4"/>
<circle cx="833" cy="3154" r="81" stroke="#364F6B" stroke-opacity="0.5" stroke-width="4"/>
<circle cx="541" cy="3942" r="44" stroke="#364F6B" stroke-opacity="0.5" stroke-width="4"/>
<circle cx="1319" cy="4487" r="26" stroke="#364F6B" stroke-opacity="0.5" stroke-width="4"/>
<circle cx="634.5" cy="3242.5" r="39.5" stroke="#364F6B" stroke-opacity="0.5" stroke-width="4"/>
<circle cx="1418" cy="3545" r="81" stroke="#364F6B" stroke-opacity="0.5" stroke-width="4"/>
<circle cx="901" cy="1916" r="66" stroke="#364F6B" stroke-opacity="0.5" stroke-width="4"/>
<circle cx="1152" cy="2100" r="94" stroke="#364F6B" stroke-opacity="0.5" stroke-width="4"/>
<circle cx="407" cy="2133" r="79" stroke="#364F6B" stroke-opacity="0.5" stroke-width="4"/>
<circle cx="1010" cy="2625" r="66" stroke="#364F6B" stroke-opacity="0.5" stroke-width="4"/>
<circle cx="1220" cy="796" r="140" stroke="#364F6B" stroke-opacity="0.5" stroke-width="4"/>
<circle cx="462" cy="648" r="140" stroke="#364F6B" stroke-opacity="0.5" stroke-width="4"/>
<circle cx="763" cy="1104" r="140" stroke="#364F6B" stroke-opacity="0.5" stroke-width="4"/>
<circle cx="1235.5" cy="1274.5" r="162.5" stroke="#364F6B" stroke-opacity="0.5" stroke-width="4"/>
<circle cx="949" cy="1532" r="127" stroke="#364F6B" stroke-opacity="0.5" stroke-width="4"/>
<circle cx="271" cy="3143" r="127" stroke="#364F6B" stroke-opacity="0.5" stroke-width="4"/>
<circle cx="918" cy="3499" r="127" stroke="#364F6B" stroke-opacity="0.5" stroke-width="4"/>
<circle cx="1067.5" cy="1306.5" r="34.5" stroke="#364F6B" stroke-opacity="0.5" stroke-width="4"/>
<circle cx="905.5" cy="653.5" r="91.5" stroke="#364F6B" stroke-opacity="0.5" stroke-width="4"/>
</svg>
