<svg width="181" height="47" viewBox="0 0 181 47" fill="none" xmlns="http://www.w3.org/2000/svg">
<rect width="181" height="47" fill="white"/>
<path d="M31.888 13.76C31.888 14.6667 31.568 15.4507 30.928 16.112C30.288 16.7627 29.3547 17.232 28.128 17.52C28.7893 17.7013 29.2907 18 29.632 18.416C29.9733 18.8213 30.144 19.2907 30.144 19.824C30.144 20.6667 29.8773 21.3973 29.344 22.016C28.8213 22.6347 28.0533 23.1147 27.04 23.456C26.0267 23.7867 24.8053 23.952 23.376 23.952C22.8427 23.952 22.416 23.936 22.096 23.904C22.0853 24.2027 21.9573 24.4267 21.712 24.576C21.4667 24.7253 21.152 24.8 20.768 24.8C20.384 24.8 20.1173 24.7147 19.968 24.544C19.8293 24.3733 19.7707 24.1227 19.792 23.792C19.888 22.2987 20.0747 20.736 20.352 19.104C20.6293 17.4613 20.9813 15.8773 21.408 14.352C21.4827 14.0853 21.632 13.8987 21.856 13.792C22.08 13.6853 22.3733 13.632 22.736 13.632C23.3867 13.632 23.712 13.8133 23.712 14.176C23.712 14.3253 23.68 14.496 23.616 14.688C23.3387 15.52 23.0613 16.6507 22.784 18.08C22.5067 19.4987 22.3093 20.8533 22.192 22.144C22.704 22.1867 23.12 22.208 23.44 22.208C24.9333 22.208 26.0267 21.9947 26.72 21.568C27.424 21.1307 27.776 20.576 27.776 19.904C27.776 19.4347 27.5733 19.04 27.168 18.72C26.7733 18.4 26.1067 18.224 25.168 18.192C24.9547 18.1813 24.8053 18.128 24.72 18.032C24.6347 17.936 24.592 17.7813 24.592 17.568C24.592 17.2587 24.656 17.008 24.784 16.816C24.912 16.624 25.1467 16.5227 25.488 16.512C26.2453 16.4907 26.928 16.3787 27.536 16.176C28.1547 15.9733 28.64 15.6907 28.992 15.328C29.344 14.9547 29.52 14.5227 29.52 14.032C29.52 13.4133 29.216 12.928 28.608 12.576C28 12.2133 27.0667 12.032 25.808 12.032C24.6667 12.032 23.5627 12.1813 22.496 12.48C21.4293 12.768 20.5227 13.136 19.776 13.584C19.4347 13.7867 19.1467 13.888 18.912 13.888C18.72 13.888 18.5707 13.824 18.464 13.696C18.368 13.5573 18.32 13.3867 18.32 13.184C18.32 12.9173 18.3733 12.688 18.48 12.496C18.5973 12.304 18.8693 12.0853 19.296 11.84C20.192 11.328 21.2427 10.928 22.448 10.64C23.6533 10.352 24.8853 10.208 26.144 10.208C28.0747 10.208 29.5147 10.5333 30.464 11.184C31.4133 11.8347 31.888 12.6933 31.888 13.76ZM33.3219 24.08C32.8419 24.08 32.4472 23.8613 32.1379 23.424C31.8392 22.976 31.6899 22.4213 31.6899 21.76C31.6899 20.96 31.7432 20.2293 31.8499 19.568C31.9565 18.896 32.1325 18.1867 32.3779 17.44C32.4845 17.12 32.6339 16.8907 32.8259 16.752C33.0179 16.6133 33.3219 16.544 33.7379 16.544C33.9725 16.544 34.1325 16.5813 34.2179 16.656C34.3139 16.7307 34.3619 16.8427 34.3619 16.992C34.3619 17.0773 34.3032 17.3653 34.1859 17.856C34.0792 18.2507 33.9939 18.608 33.9299 18.928C33.7165 20.048 33.6099 20.7947 33.6099 21.168C33.6099 21.392 33.6365 21.552 33.6899 21.648C33.7432 21.7333 33.8285 21.776 33.9459 21.776C34.1059 21.776 34.3032 21.616 34.5379 21.296C34.7832 20.976 35.0392 20.4907 35.3059 19.84C35.5832 19.1893 35.8499 18.3893 36.1059 17.44C36.1912 17.12 36.3192 16.8907 36.4899 16.752C36.6712 16.6133 36.9379 16.544 37.2899 16.544C37.5352 16.544 37.7059 16.576 37.8019 16.64C37.8979 16.6933 37.9459 16.8 37.9459 16.96C37.9459 17.2267 37.8125 17.9573 37.5459 19.152C37.2472 20.5173 37.0979 21.36 37.0979 21.68C37.0979 21.8827 37.1405 22.0427 37.2259 22.16C37.3112 22.2667 37.4232 22.32 37.5619 22.32C37.7752 22.32 38.0259 22.192 38.3139 21.936C38.6125 21.6693 39.0072 21.2427 39.4979 20.656C39.6259 20.5067 39.7699 20.432 39.9299 20.432C40.0685 20.432 40.1752 20.496 40.2499 20.624C40.3352 20.752 40.3779 20.928 40.3779 21.152C40.3779 21.5787 40.2765 21.9093 40.0739 22.144C39.6152 22.7093 39.1192 23.1733 38.5859 23.536C38.0632 23.8987 37.4659 24.08 36.7939 24.08C36.2819 24.08 35.9032 23.8827 35.6579 23.488C35.4232 23.0933 35.3059 22.5387 35.3059 21.824C35.1245 22.5493 34.8525 23.1093 34.4899 23.504C34.1272 23.888 33.7379 24.08 33.3219 24.08ZM40.2165 24.08C39.8112 24.08 39.5232 23.8667 39.3525 23.44C39.1925 23.0133 39.1125 22.3307 39.1125 21.392C39.1125 20.0053 39.3098 18.688 39.7045 17.44C39.8005 17.1307 39.9552 16.9067 40.1685 16.768C40.3925 16.6187 40.7018 16.544 41.0965 16.544C41.3098 16.544 41.4592 16.5707 41.5445 16.624C41.6298 16.6773 41.6725 16.7787 41.6725 16.928C41.6725 17.0987 41.5925 17.4827 41.4325 18.08C41.3258 18.5067 41.2405 18.88 41.1765 19.2C41.1125 19.52 41.0592 19.9147 41.0165 20.384C41.3685 19.4667 41.7632 18.72 42.2005 18.144C42.6378 17.568 43.0645 17.1573 43.4805 16.912C43.9072 16.6667 44.2965 16.544 44.6485 16.544C45.3418 16.544 45.6885 16.8907 45.6885 17.584C45.6885 18 45.5712 18.752 45.3365 19.84C45.1338 20.768 45.0325 21.3813 45.0325 21.68C45.0325 22.1067 45.1872 22.32 45.4965 22.32C45.7098 22.32 45.9605 22.192 46.2485 21.936C46.5472 21.6693 46.9418 21.2427 47.4325 20.656C47.5605 20.5067 47.7045 20.432 47.8645 20.432C48.0032 20.432 48.1098 20.496 48.1845 20.624C48.2698 20.752 48.3125 20.928 48.3125 21.152C48.3125 21.5787 48.2112 21.9093 48.0085 22.144C47.5498 22.7093 47.0538 23.1733 46.5205 23.536C45.9978 23.8987 45.4005 24.08 44.7285 24.08C44.1845 24.08 43.7738 23.9253 43.4965 23.616C43.2192 23.296 43.0805 22.8373 43.0805 22.24C43.0805 21.9413 43.1552 21.408 43.3045 20.64C43.4432 19.968 43.5125 19.504 43.5125 19.248C43.5125 19.0773 43.4538 18.992 43.3365 18.992C43.1978 18.992 43.0005 19.1733 42.7445 19.536C42.4992 19.888 42.2432 20.3573 41.9765 20.944C41.7205 21.5307 41.5125 22.1493 41.3525 22.8C41.2352 23.3013 41.0965 23.6427 40.9365 23.824C40.7872 23.9947 40.5472 24.08 40.2165 24.08ZM48.986 24.08C48.3247 24.08 47.7967 23.84 47.402 23.36C47.0073 22.88 46.81 22.2507 46.81 21.472C46.81 20.6187 47.0073 19.8133 47.402 19.056C47.7967 18.288 48.3193 17.6747 48.97 17.216C49.6313 16.7467 50.33 16.512 51.066 16.512C51.3007 16.512 51.4553 16.56 51.53 16.656C51.6153 16.7413 51.6847 16.9013 51.738 17.136C51.962 17.0933 52.1967 17.072 52.442 17.072C52.9647 17.072 53.226 17.2587 53.226 17.632C53.226 17.856 53.146 18.3893 52.986 19.232C52.7407 20.4587 52.618 21.312 52.618 21.792C52.618 21.952 52.6553 22.08 52.73 22.176C52.8153 22.272 52.922 22.32 53.05 22.32C53.2527 22.32 53.498 22.192 53.786 21.936C54.074 21.6693 54.4633 21.2427 54.954 20.656C55.082 20.5067 55.226 20.432 55.386 20.432C55.5247 20.432 55.6313 20.496 55.706 20.624C55.7913 20.752 55.834 20.928 55.834 21.152C55.834 21.5787 55.7327 21.9093 55.53 22.144C55.0927 22.688 54.6287 23.1467 54.138 23.52C53.6473 23.8933 53.1727 24.08 52.714 24.08C52.362 24.08 52.0367 23.9627 51.738 23.728C51.45 23.4827 51.2313 23.152 51.082 22.736C50.5273 23.632 49.8287 24.08 48.986 24.08ZM49.562 22.464C49.7967 22.464 50.0207 22.3253 50.234 22.048C50.4473 21.7707 50.602 21.4027 50.698 20.944L51.29 18C50.842 18.0107 50.426 18.1813 50.042 18.512C49.6687 18.832 49.37 19.2587 49.146 19.792C48.922 20.3253 48.81 20.8907 48.81 21.488C48.81 21.8187 48.874 22.064 49.002 22.224C49.1407 22.384 49.3273 22.464 49.562 22.464ZM63.0776 20.432C63.2163 20.432 63.323 20.496 63.3976 20.624C63.483 20.752 63.5256 20.928 63.5256 21.152C63.5256 21.5787 63.4243 21.9093 63.2216 22.144C62.763 22.7093 62.267 23.1733 61.7336 23.536C61.211 23.8987 60.6136 24.08 59.9416 24.08C59.3763 24.08 58.9176 23.8773 58.5656 23.472C57.9576 23.8667 57.323 24.0693 56.6616 24.08C56.523 26.1387 56.2083 27.856 55.7176 29.232C55.227 30.6187 54.507 31.312 53.5576 31.312C52.9816 31.312 52.555 31.104 52.2776 30.688C52.0003 30.272 51.8616 29.696 51.8616 28.96C51.8616 27.9147 52.1016 26.6933 52.5816 25.296C53.0616 23.9093 53.803 22.3787 54.8056 20.704C54.8056 19.1467 54.795 18.064 54.7736 17.456C54.763 17.1467 54.8856 16.9013 55.1416 16.72C55.3976 16.5387 55.7176 16.448 56.1016 16.448C56.3256 16.448 56.4856 16.496 56.5816 16.592C56.6883 16.6773 56.747 16.8533 56.7576 17.12C56.7576 17.3867 56.763 17.584 56.7736 17.712C57.115 17.2853 57.451 16.9813 57.7816 16.8C58.1123 16.608 58.4643 16.512 58.8376 16.512C59.435 16.512 59.9203 16.752 60.2936 17.232C60.6776 17.712 60.8696 18.3413 60.8696 19.12C60.8696 19.6853 60.779 20.2347 60.5976 20.768C60.4163 21.3013 60.1656 21.7867 59.8456 22.224C60.0696 22.288 60.2563 22.32 60.4056 22.32C60.7576 22.32 61.0936 22.192 61.4136 21.936C61.7336 21.68 62.1443 21.2533 62.6456 20.656C62.7736 20.5067 62.9176 20.432 63.0776 20.432ZM56.7416 22.544C57.1256 22.4587 57.4776 22.2507 57.7976 21.92C58.1283 21.5787 58.3896 21.1627 58.5816 20.672C58.7736 20.1707 58.8696 19.648 58.8696 19.104C58.8696 18.784 58.8056 18.544 58.6776 18.384C58.5496 18.2133 58.379 18.128 58.1656 18.128C57.7816 18.128 57.3176 18.5333 56.7736 19.344C56.763 19.8133 56.7576 20.5013 56.7576 21.408C56.7576 21.8987 56.7523 22.2773 56.7416 22.544ZM53.6856 29.744C53.9736 29.744 54.2136 29.1147 54.4056 27.856C54.5976 26.608 54.7203 25.0507 54.7736 23.184C54.315 24.2507 53.9523 25.2693 53.6856 26.24C53.419 27.2107 53.2856 28.0267 53.2856 28.688C53.2856 29.0293 53.3283 29.2907 53.4136 29.472C53.4883 29.6533 53.579 29.744 53.6856 29.744ZM70.7808 20.432C70.9194 20.432 71.0261 20.496 71.1008 20.624C71.1861 20.752 71.2288 20.928 71.2288 21.152C71.2288 21.5787 71.1274 21.9093 70.9248 22.144C70.4661 22.7093 69.9701 23.1733 69.4368 23.536C68.9141 23.8987 68.3168 24.08 67.6448 24.08C67.0794 24.08 66.6208 23.8773 66.2688 23.472C65.6608 23.8667 65.0261 24.0693 64.3648 24.08C64.2261 26.1387 63.9114 27.856 63.4208 29.232C62.9301 30.6187 62.2101 31.312 61.2607 31.312C60.6847 31.312 60.2581 31.104 59.9807 30.688C59.7034 30.272 59.5647 29.696 59.5647 28.96C59.5647 27.9147 59.8047 26.6933 60.2847 25.296C60.7647 23.9093 61.5061 22.3787 62.5088 20.704C62.5088 19.1467 62.4981 18.064 62.4768 17.456C62.4661 17.1467 62.5888 16.9013 62.8448 16.72C63.1008 16.5387 63.4208 16.448 63.8048 16.448C64.0288 16.448 64.1888 16.496 64.2848 16.592C64.3914 16.6773 64.4501 16.8533 64.4608 17.12C64.4608 17.3867 64.4661 17.584 64.4768 17.712C64.8181 17.2853 65.1541 16.9813 65.4848 16.8C65.8154 16.608 66.1674 16.512 66.5408 16.512C67.1381 16.512 67.6234 16.752 67.9968 17.232C68.3808 17.712 68.5728 18.3413 68.5728 19.12C68.5728 19.6853 68.4821 20.2347 68.3008 20.768C68.1194 21.3013 67.8688 21.7867 67.5488 22.224C67.7728 22.288 67.9594 22.32 68.1088 22.32C68.4608 22.32 68.7968 22.192 69.1168 21.936C69.4368 21.68 69.8474 21.2533 70.3488 20.656C70.4768 20.5067 70.6208 20.432 70.7808 20.432ZM64.4448 22.544C64.8288 22.4587 65.1808 22.2507 65.5008 21.92C65.8314 21.5787 66.0928 21.1627 66.2848 20.672C66.4768 20.1707 66.5728 19.648 66.5728 19.104C66.5728 18.784 66.5088 18.544 66.3808 18.384C66.2528 18.2133 66.0821 18.128 65.8688 18.128C65.4848 18.128 65.0208 18.5333 64.4768 19.344C64.4661 19.8133 64.4608 20.5013 64.4608 21.408C64.4608 21.8987 64.4554 22.2773 64.4448 22.544ZM61.3887 29.744C61.6768 29.744 61.9168 29.1147 62.1088 27.856C62.3008 26.608 62.4234 25.0507 62.4768 23.184C62.0181 24.2507 61.6554 25.2693 61.3887 26.24C61.1221 27.2107 60.9887 28.0267 60.9887 28.688C60.9887 29.0293 61.0314 29.2907 61.1167 29.472C61.1914 29.6533 61.2821 29.744 61.3887 29.744ZM77.0759 20.432C77.2145 20.432 77.3212 20.496 77.3959 20.624C77.4812 20.752 77.5239 20.928 77.5239 21.152C77.5239 21.5787 77.4225 21.9093 77.2199 22.144C76.8252 22.624 76.2652 23.0667 75.5399 23.472C74.8252 23.8773 74.0572 24.08 73.2359 24.08C72.1159 24.08 71.2465 23.776 70.6279 23.168C70.0092 22.56 69.6999 21.728 69.6999 20.672C69.6999 19.936 69.8545 19.2533 70.1639 18.624C70.4732 17.984 70.8999 17.4773 71.4439 17.104C71.9985 16.7307 72.6225 16.544 73.3159 16.544C73.9345 16.544 74.4305 16.7307 74.8039 17.104C75.1772 17.4667 75.3639 17.9627 75.3639 18.592C75.3639 19.328 75.0972 19.9627 74.5639 20.496C74.0412 21.0187 73.1505 21.4347 71.8919 21.744C72.1585 22.2347 72.6652 22.48 73.4119 22.48C73.8919 22.48 74.4359 22.3147 75.0439 21.984C75.6625 21.6427 76.1959 21.2 76.6439 20.656C76.7719 20.5067 76.9159 20.432 77.0759 20.432ZM73.0439 18.112C72.6492 18.112 72.3132 18.3413 72.0359 18.8C71.7692 19.2587 71.6359 19.8133 71.6359 20.464V20.496C72.2652 20.3467 72.7612 20.1227 73.1239 19.824C73.4865 19.5253 73.6679 19.1787 73.6679 18.784C73.6679 18.5813 73.6092 18.4213 73.4919 18.304C73.3852 18.176 73.2359 18.112 73.0439 18.112ZM83.3571 20.432C83.4958 20.432 83.6025 20.496 83.6771 20.624C83.7625 20.752 83.8051 20.928 83.8051 21.152C83.8051 21.5787 83.7038 21.9093 83.5011 22.144C83.0425 22.7093 82.5411 23.1733 81.9971 23.536C81.4531 23.8987 80.8291 24.08 80.1251 24.08C77.9491 24.08 76.8611 22.5493 76.8611 19.488C76.8611 19.0187 76.8771 18.544 76.9091 18.064H76.2851C75.9651 18.064 75.7465 18.0053 75.6291 17.888C75.5225 17.7707 75.4691 17.584 75.4691 17.328C75.4691 16.7307 75.7091 16.432 76.1891 16.432H77.1011C77.2825 15.2587 77.5598 14.1867 77.9331 13.216C78.3065 12.2453 78.7545 11.472 79.2771 10.896C79.8105 10.32 80.3811 10.032 80.9891 10.032C81.4371 10.032 81.7891 10.2293 82.0451 10.624C82.3011 11.0187 82.4291 11.5147 82.4291 12.112C82.4291 13.7653 81.7358 15.2053 80.3491 16.432H82.1411C82.3118 16.432 82.4345 16.4693 82.5091 16.544C82.5838 16.6187 82.6211 16.7573 82.6211 16.96C82.6211 17.696 82.0185 18.064 80.8131 18.064H78.8611C78.8398 18.5973 78.8291 19.0133 78.8291 19.312C78.8291 20.4213 78.9571 21.2 79.2131 21.648C79.4798 22.096 79.8958 22.32 80.4611 22.32C80.9198 22.32 81.3251 22.1813 81.6771 21.904C82.0291 21.6267 82.4451 21.2107 82.9251 20.656C83.0531 20.5067 83.1971 20.432 83.3571 20.432ZM80.5571 11.568C80.3971 11.568 80.2158 11.7707 80.0131 12.176C79.8211 12.5707 79.6345 13.1253 79.4531 13.84C79.2825 14.544 79.1385 15.328 79.0211 16.192C79.6505 15.648 80.1198 15.04 80.4291 14.368C80.7491 13.6853 80.9091 13.0667 80.9091 12.512C80.9091 11.8827 80.7918 11.568 80.5571 11.568ZM84.5984 15.488C84.1504 15.488 83.8144 15.3867 83.5904 15.184C83.3664 14.9707 83.2544 14.6773 83.2544 14.304C83.2544 13.9307 83.3984 13.6213 83.6864 13.376C83.985 13.12 84.353 12.992 84.7904 12.992C85.185 12.992 85.505 13.088 85.7504 13.28C85.9957 13.472 86.1184 13.744 86.1184 14.096C86.1184 14.5227 85.9797 14.864 85.7024 15.12C85.425 15.3653 85.057 15.488 84.5984 15.488ZM84.4704 24.08C83.777 24.08 83.2704 23.8347 82.9504 23.344C82.641 22.8533 82.4864 22.2027 82.4864 21.392C82.4864 20.912 82.545 20.2987 82.6624 19.552C82.7904 18.7947 82.9504 18.0907 83.1424 17.44C83.2384 17.0987 83.3664 16.864 83.5264 16.736C83.6864 16.608 83.9424 16.544 84.2944 16.544C84.8384 16.544 85.1104 16.7253 85.1104 17.088C85.1104 17.3547 85.009 17.9733 84.8064 18.944C84.5504 20.1173 84.4224 20.912 84.4224 21.328C84.4224 21.648 84.465 21.8933 84.5504 22.064C84.6357 22.2347 84.7797 22.32 84.9824 22.32C85.1744 22.32 85.4144 22.1867 85.7024 21.92C85.9904 21.6533 86.3744 21.232 86.8544 20.656C86.9824 20.5067 87.1264 20.432 87.2864 20.432C87.425 20.432 87.5317 20.496 87.6064 20.624C87.6917 20.752 87.7344 20.928 87.7344 21.152C87.7344 21.5787 87.633 21.9093 87.4304 22.144C86.3744 23.4347 85.3877 24.08 84.4704 24.08ZM93.5759 20.432C93.7145 20.432 93.8212 20.496 93.8959 20.624C93.9812 20.752 94.0239 20.928 94.0239 21.152C94.0239 21.5787 93.9225 21.9093 93.7199 22.144C93.2612 22.7093 92.7599 23.1733 92.2159 23.536C91.6719 23.8987 91.0479 24.08 90.3439 24.08C88.1679 24.08 87.0799 22.5493 87.0799 19.488C87.0799 19.0187 87.0959 18.544 87.1279 18.064H86.5039C86.1839 18.064 85.9652 18.0053 85.8479 17.888C85.7412 17.7707 85.6879 17.584 85.6879 17.328C85.6879 16.7307 85.9279 16.432 86.4079 16.432H87.3199C87.5012 15.2587 87.7785 14.1867 88.1519 13.216C88.5252 12.2453 88.9732 11.472 89.4959 10.896C90.0292 10.32 90.5999 10.032 91.2079 10.032C91.6559 10.032 92.0079 10.2293 92.2639 10.624C92.5199 11.0187 92.6479 11.5147 92.6479 12.112C92.6479 13.7653 91.9545 15.2053 90.5679 16.432H92.3599C92.5305 16.432 92.6532 16.4693 92.7279 16.544C92.8025 16.6187 92.8399 16.7573 92.8399 16.96C92.8399 17.696 92.2372 18.064 91.0319 18.064H89.0799C89.0585 18.5973 89.0479 19.0133 89.0479 19.312C89.0479 20.4213 89.1759 21.2 89.4319 21.648C89.6985 22.096 90.1145 22.32 90.6799 22.32C91.1385 22.32 91.5439 22.1813 91.8959 21.904C92.2479 21.6267 92.6639 21.2107 93.1439 20.656C93.2719 20.5067 93.4159 20.432 93.5759 20.432ZM90.7759 11.568C90.6159 11.568 90.4345 11.7707 90.2319 12.176C90.0399 12.5707 89.8532 13.1253 89.6719 13.84C89.5012 14.544 89.3572 15.328 89.2399 16.192C89.8692 15.648 90.3385 15.04 90.6479 14.368C90.9679 13.6853 91.1279 13.0667 91.1279 12.512C91.1279 11.8827 91.0105 11.568 90.7759 11.568ZM98.4491 20.912C98.5878 20.912 98.6945 20.976 98.7691 21.104C98.8545 21.232 98.8971 21.408 98.8971 21.632C98.8971 22.016 98.8065 22.3467 98.6251 22.624C98.3265 23.0827 97.9318 23.44 97.4411 23.696C96.9611 23.952 96.3851 24.08 95.7131 24.08C94.6891 24.08 93.8945 23.776 93.3291 23.168C92.7638 22.5493 92.4811 21.7173 92.4811 20.672C92.4811 19.936 92.6358 19.2533 92.9451 18.624C93.2545 17.984 93.6811 17.4773 94.2251 17.104C94.7798 16.7307 95.4038 16.544 96.0971 16.544C96.7158 16.544 97.2118 16.7307 97.5851 17.104C97.9585 17.4667 98.1451 17.9627 98.1451 18.592C98.1451 19.328 97.8785 19.9627 97.3451 20.496C96.8225 21.0187 95.9265 21.4347 94.6571 21.744C94.9131 22.2347 95.3451 22.48 95.9531 22.48C96.3905 22.48 96.7478 22.3787 97.0251 22.176C97.3131 21.9733 97.6438 21.632 98.0171 21.152C98.1451 20.992 98.2891 20.912 98.4491 20.912ZM95.8251 18.112C95.4305 18.112 95.0945 18.3413 94.8171 18.8C94.5505 19.2587 94.4171 19.8133 94.4171 20.464V20.496C95.0465 20.3467 95.5425 20.1227 95.9051 19.824C96.2678 19.5253 96.4491 19.1787 96.4491 18.784C96.4491 18.5813 96.3905 18.4213 96.2731 18.304C96.1665 18.176 96.0171 18.112 95.8251 18.112Z" fill="black"/>
<path d="M6.66016 37V31.3125H8.51953C9.13672 31.3125 9.60026 31.4401 9.91016 31.6953C10.2227 31.9505 10.3789 32.3281 10.3789 32.8281C10.3789 33.0938 10.3034 33.3294 10.1523 33.5352C10.0013 33.7383 9.79557 33.8958 9.53516 34.0078C9.84245 34.0938 10.0846 34.2578 10.2617 34.5C10.4414 34.7396 10.5312 35.026 10.5312 35.3594C10.5312 35.8698 10.3659 36.2708 10.0352 36.5625C9.70443 36.8542 9.23698 37 8.63281 37H6.66016ZM7.41016 34.3398V36.3867H8.64844C8.9974 36.3867 9.27214 36.2969 9.47266 36.1172C9.67578 35.9349 9.77734 35.6849 9.77734 35.3672C9.77734 34.6823 9.40495 34.3398 8.66016 34.3398H7.41016ZM7.41016 33.7383H8.54297C8.87109 33.7383 9.13281 33.6562 9.32812 33.4922C9.52604 33.3281 9.625 33.1055 9.625 32.8242C9.625 32.5117 9.53385 32.2852 9.35156 32.1445C9.16927 32.0013 8.89193 31.9297 8.51953 31.9297H7.41016V33.7383ZM15.7406 37C15.699 36.9167 15.6651 36.7682 15.6391 36.5547C15.3031 36.9036 14.9021 37.0781 14.4359 37.0781C14.0193 37.0781 13.6768 36.9609 13.4086 36.7266C13.143 36.4896 13.0102 36.1901 13.0102 35.8281C13.0102 35.388 13.1768 35.0469 13.5102 34.8047C13.8461 34.5599 14.3174 34.4375 14.9242 34.4375H15.6273V34.1055C15.6273 33.8529 15.5518 33.6523 15.4008 33.5039C15.2497 33.3529 15.0271 33.2773 14.7328 33.2773C14.475 33.2773 14.2589 33.3424 14.0844 33.4727C13.9099 33.6029 13.8227 33.7604 13.8227 33.9453H13.0961C13.0961 33.7344 13.1703 33.5312 13.3187 33.3359C13.4698 33.138 13.6729 32.9818 13.9281 32.8672C14.1859 32.7526 14.4685 32.6953 14.7758 32.6953C15.2628 32.6953 15.6443 32.8177 15.9203 33.0625C16.1964 33.3047 16.3396 33.6393 16.35 34.0664V36.0117C16.35 36.3997 16.3995 36.7083 16.4984 36.9375V37H15.7406ZM14.5414 36.4492C14.768 36.4492 14.9828 36.3906 15.1859 36.2734C15.3891 36.1562 15.5362 36.0039 15.6273 35.8164V34.9492H15.0609C14.1755 34.9492 13.7328 35.2083 13.7328 35.7266C13.7328 35.9531 13.8083 36.1302 13.9594 36.2578C14.1104 36.3854 14.3044 36.4492 14.5414 36.4492ZM20.2625 35.043L19.8094 35.5156V37H19.0867V31H19.8094V34.6289L20.1961 34.1641L21.5125 32.7734H22.3914L20.7469 34.5391L22.5828 37H21.7352L20.2625 35.043ZM26.4133 37.0781C25.8404 37.0781 25.3742 36.8906 25.0148 36.5156C24.6555 36.138 24.4758 35.6341 24.4758 35.0039V34.8711C24.4758 34.4518 24.5552 34.0781 24.7141 33.75C24.8755 33.4193 25.0995 33.1615 25.3859 32.9766C25.675 32.7891 25.9875 32.6953 26.3234 32.6953C26.8729 32.6953 27.3 32.8763 27.6047 33.2383C27.9094 33.6003 28.0617 34.1185 28.0617 34.793V35.0938H25.1984C25.2089 35.5104 25.3299 35.8477 25.5617 36.1055C25.7961 36.3607 26.093 36.4883 26.4523 36.4883C26.7076 36.4883 26.9237 36.4362 27.1008 36.332C27.2779 36.2279 27.4328 36.0898 27.5656 35.918L28.007 36.2617C27.6529 36.806 27.1216 37.0781 26.4133 37.0781ZM26.3234 33.2891C26.0318 33.2891 25.787 33.3958 25.5891 33.6094C25.3911 33.8203 25.2687 34.1172 25.2219 34.5H27.3391V34.4453C27.3182 34.0781 27.2193 33.7943 27.0422 33.5938C26.8651 33.3906 26.6255 33.2891 26.3234 33.2891ZM32.9625 35.8789C32.9625 35.6836 32.8883 35.5326 32.7398 35.4258C32.594 35.3164 32.3375 35.2227 31.9703 35.1445C31.6057 35.0664 31.3154 34.9727 31.0992 34.8633C30.8857 34.7539 30.7268 34.6237 30.6227 34.4727C30.5211 34.3216 30.4703 34.1419 30.4703 33.9336C30.4703 33.5872 30.6161 33.2943 30.9078 33.0547C31.2021 32.8151 31.5771 32.6953 32.0328 32.6953C32.512 32.6953 32.9 32.819 33.1969 33.0664C33.4964 33.3138 33.6461 33.6302 33.6461 34.0156H32.9195C32.9195 33.8177 32.8349 33.6471 32.6656 33.5039C32.499 33.3607 32.288 33.2891 32.0328 33.2891C31.7698 33.2891 31.5641 33.3464 31.4156 33.4609C31.2672 33.5755 31.193 33.7253 31.193 33.9102C31.193 34.0846 31.262 34.2161 31.4 34.3047C31.538 34.3932 31.7867 34.4779 32.1461 34.5586C32.5081 34.6393 32.801 34.7357 33.025 34.8477C33.249 34.9596 33.4143 35.0951 33.5211 35.2539C33.6305 35.4102 33.6852 35.6016 33.6852 35.8281C33.6852 36.2057 33.5341 36.5091 33.232 36.7383C32.9299 36.9648 32.538 37.0781 32.0562 37.0781C31.7177 37.0781 31.4182 37.0182 31.1578 36.8984C30.8974 36.7786 30.693 36.612 30.5445 36.3984C30.3987 36.1823 30.3258 35.9492 30.3258 35.6992H31.0484C31.0615 35.9414 31.1578 36.1341 31.3375 36.2773C31.5198 36.418 31.7594 36.4883 32.0562 36.4883C32.3297 36.4883 32.5484 36.4336 32.7125 36.3242C32.8792 36.2122 32.9625 36.0638 32.9625 35.8789ZM36.9492 33.2852C37.2695 32.8919 37.6862 32.6953 38.1992 32.6953C39.0924 32.6953 39.543 33.1992 39.5508 34.207V37H38.8281V34.2031C38.8255 33.8984 38.7552 33.6732 38.6172 33.5273C38.4818 33.3815 38.2695 33.3086 37.9805 33.3086C37.7461 33.3086 37.5404 33.3711 37.3633 33.4961C37.1862 33.6211 37.0482 33.7852 36.9492 33.9883V37H36.2266V31H36.9492V33.2852ZM42.0414 34.8477C42.0414 34.4336 42.1221 34.0612 42.2836 33.7305C42.4477 33.3997 42.6742 33.1445 42.9633 32.9648C43.2549 32.7852 43.587 32.6953 43.9594 32.6953C44.5349 32.6953 44.9997 32.8945 45.3539 33.293C45.7107 33.6914 45.8891 34.2214 45.8891 34.8828V34.9336C45.8891 35.3451 45.8096 35.7148 45.6508 36.043C45.4945 36.3685 45.2693 36.6224 44.975 36.8047C44.6833 36.987 44.3474 37.0781 43.9672 37.0781C43.3943 37.0781 42.9294 36.8789 42.5727 36.4805C42.2185 36.082 42.0414 35.5547 42.0414 34.8984V34.8477ZM42.768 34.9336C42.768 35.4023 42.876 35.7786 43.0922 36.0625C43.3109 36.3464 43.6026 36.4883 43.9672 36.4883C44.3344 36.4883 44.626 36.3451 44.8422 36.0586C45.0583 35.7695 45.1664 35.3659 45.1664 34.8477C45.1664 34.3841 45.0557 34.0091 44.8344 33.7227C44.6156 33.4336 44.324 33.2891 43.9594 33.2891C43.6026 33.2891 43.3148 33.431 43.0961 33.7148C42.8773 33.9987 42.768 34.4049 42.768 34.9336ZM51.9656 34.9336C51.9656 35.5768 51.8185 36.0951 51.5242 36.4883C51.2299 36.8815 50.8315 37.0781 50.3289 37.0781C49.8159 37.0781 49.4122 36.9154 49.118 36.5898V38.625H48.3953V32.7734H49.0555L49.0906 33.2422C49.3849 32.8776 49.7938 32.6953 50.3172 32.6953C50.825 32.6953 51.226 32.8867 51.5203 33.2695C51.8172 33.6523 51.9656 34.1849 51.9656 34.8672V34.9336ZM51.243 34.8516C51.243 34.375 51.1414 33.9987 50.9383 33.7227C50.7352 33.4466 50.4565 33.3086 50.1023 33.3086C49.6648 33.3086 49.3367 33.5026 49.118 33.8906V35.9102C49.3341 36.2956 49.6648 36.4883 50.1102 36.4883C50.4565 36.4883 50.7313 36.3516 50.9344 36.0781C51.1401 35.8021 51.243 35.3932 51.243 34.8516ZM58.0578 34.9336C58.0578 35.5768 57.9107 36.0951 57.6164 36.4883C57.3221 36.8815 56.9237 37.0781 56.4211 37.0781C55.9081 37.0781 55.5044 36.9154 55.2102 36.5898V38.625H54.4875V32.7734H55.1477L55.1828 33.2422C55.4771 32.8776 55.8859 32.6953 56.4094 32.6953C56.9172 32.6953 57.3182 32.8867 57.6125 33.2695C57.9094 33.6523 58.0578 34.1849 58.0578 34.8672V34.9336ZM57.3352 34.8516C57.3352 34.375 57.2336 33.9987 57.0305 33.7227C56.8273 33.4466 56.5487 33.3086 56.1945 33.3086C55.757 33.3086 55.4289 33.5026 55.2102 33.8906V35.9102C55.4263 36.2956 55.757 36.4883 56.2023 36.4883C56.5487 36.4883 56.8234 36.3516 57.0266 36.0781C57.2323 35.8021 57.3352 35.3932 57.3352 34.8516ZM62.3336 37.0781C61.7607 37.0781 61.2945 36.8906 60.9352 36.5156C60.5758 36.138 60.3961 35.6341 60.3961 35.0039V34.8711C60.3961 34.4518 60.4755 34.0781 60.6344 33.75C60.7958 33.4193 61.0198 33.1615 61.3063 32.9766C61.5953 32.7891 61.9078 32.6953 62.2438 32.6953C62.7932 32.6953 63.2203 32.8763 63.525 33.2383C63.8297 33.6003 63.982 34.1185 63.982 34.793V35.0938H61.1188C61.1292 35.5104 61.2503 35.8477 61.482 36.1055C61.7164 36.3607 62.0133 36.4883 62.3727 36.4883C62.6279 36.4883 62.844 36.4362 63.0211 36.332C63.1982 36.2279 63.3531 36.0898 63.4859 35.918L63.9273 36.2617C63.5732 36.806 63.0419 37.0781 62.3336 37.0781ZM62.2438 33.2891C61.9521 33.2891 61.7073 33.3958 61.5094 33.6094C61.3115 33.8203 61.1891 34.1172 61.1422 34.5H63.2594V34.4453C63.2385 34.0781 63.1396 33.7943 62.9625 33.5938C62.7854 33.3906 62.5458 33.2891 62.2438 33.2891ZM72.6156 37C72.574 36.9167 72.5401 36.7682 72.5141 36.5547C72.1781 36.9036 71.7771 37.0781 71.3109 37.0781C70.8943 37.0781 70.5518 36.9609 70.2836 36.7266C70.018 36.4896 69.8852 36.1901 69.8852 35.8281C69.8852 35.388 70.0518 35.0469 70.3852 34.8047C70.7211 34.5599 71.1924 34.4375 71.7992 34.4375H72.5023V34.1055C72.5023 33.8529 72.4268 33.6523 72.2758 33.5039C72.1247 33.3529 71.9021 33.2773 71.6078 33.2773C71.35 33.2773 71.1339 33.3424 70.9594 33.4727C70.7849 33.6029 70.6977 33.7604 70.6977 33.9453H69.9711C69.9711 33.7344 70.0453 33.5312 70.1937 33.3359C70.3448 33.138 70.5479 32.9818 70.8031 32.8672C71.0609 32.7526 71.3435 32.6953 71.6508 32.6953C72.1378 32.6953 72.5193 32.8177 72.7953 33.0625C73.0714 33.3047 73.2146 33.6393 73.225 34.0664V36.0117C73.225 36.3997 73.2745 36.7083 73.3734 36.9375V37H72.6156ZM71.4164 36.4492C71.643 36.4492 71.8578 36.3906 72.0609 36.2734C72.2641 36.1562 72.4112 36.0039 72.5023 35.8164V34.9492H71.9359C71.0505 34.9492 70.6078 35.2083 70.6078 35.7266C70.6078 35.9531 70.6833 36.1302 70.8344 36.2578C70.9854 36.3854 71.1794 36.4492 71.4164 36.4492ZM76.6414 32.7734L76.6648 33.3047C76.9878 32.8984 77.4096 32.6953 77.9305 32.6953C78.8237 32.6953 79.2742 33.1992 79.282 34.207V37H78.5594V34.2031C78.5568 33.8984 78.4865 33.6732 78.3484 33.5273C78.213 33.3815 78.0008 33.3086 77.7117 33.3086C77.4773 33.3086 77.2716 33.3711 77.0945 33.4961C76.9174 33.6211 76.7794 33.7852 76.6805 33.9883V37H75.9578V32.7734H76.6414ZM81.7961 34.8516C81.7961 34.2031 81.9497 33.6823 82.257 33.2891C82.5643 32.8932 82.9667 32.6953 83.4641 32.6953C83.9589 32.6953 84.3508 32.8646 84.6398 33.2031V31H85.3625V37H84.6984L84.6633 36.5469C84.3742 36.901 83.9719 37.0781 83.4563 37.0781C82.9667 37.0781 82.5669 36.8776 82.257 36.4766C81.9497 36.0755 81.7961 35.5521 81.7961 34.9062V34.8516ZM82.5188 34.9336C82.5188 35.4128 82.6177 35.7878 82.8156 36.0586C83.0135 36.3294 83.287 36.4648 83.6359 36.4648C84.0943 36.4648 84.4289 36.2591 84.6398 35.8477V33.9062C84.4237 33.5078 84.0917 33.3086 83.6438 33.3086C83.2896 33.3086 83.0135 33.4453 82.8156 33.7188C82.6177 33.9922 82.5188 34.3971 82.5188 34.9336ZM95.9688 35.1953C95.8984 35.7969 95.6758 36.2617 95.3008 36.5898C94.9284 36.9154 94.4323 37.0781 93.8125 37.0781C93.1406 37.0781 92.6016 36.8372 92.1953 36.3555C91.7917 35.8737 91.5898 35.2292 91.5898 34.4219V33.875C91.5898 33.3464 91.6836 32.8815 91.8711 32.4805C92.0612 32.0794 92.3294 31.7721 92.6758 31.5586C93.0221 31.3424 93.4232 31.2344 93.8789 31.2344C94.4831 31.2344 94.9674 31.4036 95.332 31.7422C95.6966 32.0781 95.9089 32.5443 95.9688 33.1406H95.2148C95.1497 32.6875 95.0078 32.3594 94.7891 32.1562C94.5729 31.9531 94.2695 31.8516 93.8789 31.8516C93.3997 31.8516 93.0234 32.0286 92.75 32.3828C92.4792 32.737 92.3438 33.2409 92.3438 33.8945V34.4453C92.3438 35.0625 92.4727 35.5534 92.7305 35.918C92.9883 36.2826 93.349 36.4648 93.8125 36.4648C94.2292 36.4648 94.5482 36.3711 94.7695 36.1836C94.9935 35.9935 95.1419 35.6641 95.2148 35.1953H95.9688ZM101.092 37C101.051 36.9167 101.017 36.7682 100.991 36.5547C100.655 36.9036 100.254 37.0781 99.7875 37.0781C99.3708 37.0781 99.0284 36.9609 98.7602 36.7266C98.4945 36.4896 98.3617 36.1901 98.3617 35.8281C98.3617 35.388 98.5284 35.0469 98.8617 34.8047C99.1977 34.5599 99.669 34.4375 100.276 34.4375H100.979V34.1055C100.979 33.8529 100.903 33.6523 100.752 33.5039C100.601 33.3529 100.379 33.2773 100.084 33.2773C99.8266 33.2773 99.6104 33.3424 99.4359 33.4727C99.2615 33.6029 99.1742 33.7604 99.1742 33.9453H98.4477C98.4477 33.7344 98.5219 33.5312 98.6703 33.3359C98.8214 33.138 99.0245 32.9818 99.2797 32.8672C99.5375 32.7526 99.8201 32.6953 100.127 32.6953C100.614 32.6953 100.996 32.8177 101.272 33.0625C101.548 33.3047 101.691 33.6393 101.702 34.0664V36.0117C101.702 36.3997 101.751 36.7083 101.85 36.9375V37H101.092ZM99.893 36.4492C100.12 36.4492 100.334 36.3906 100.537 36.2734C100.741 36.1562 100.888 36.0039 100.979 35.8164V34.9492H100.412C99.5271 34.9492 99.0844 35.2083 99.0844 35.7266C99.0844 35.9531 99.1599 36.1302 99.3109 36.2578C99.462 36.3854 99.656 36.4492 99.893 36.4492ZM104.79 37V33.332H104.122V32.7734H104.79V32.3398C104.79 31.8867 104.911 31.5365 105.153 31.2891C105.395 31.0417 105.738 30.918 106.18 30.918C106.347 30.918 106.512 30.9401 106.677 30.9844L106.637 31.5703C106.515 31.5469 106.385 31.5352 106.247 31.5352C106.012 31.5352 105.832 31.6042 105.704 31.7422C105.576 31.8776 105.512 32.0729 105.512 32.3281V32.7734H106.415V33.332H105.512V37H104.79ZM110.476 37.0781C109.903 37.0781 109.437 36.8906 109.077 36.5156C108.718 36.138 108.538 35.6341 108.538 35.0039V34.8711C108.538 34.4518 108.618 34.0781 108.777 33.75C108.938 33.4193 109.162 33.1615 109.448 32.9766C109.738 32.7891 110.05 32.6953 110.386 32.6953C110.935 32.6953 111.363 32.8763 111.667 33.2383C111.972 33.6003 112.124 34.1185 112.124 34.793V35.0938H109.261C109.271 35.5104 109.392 35.8477 109.624 36.1055C109.859 36.3607 110.155 36.4883 110.515 36.4883C110.77 36.4883 110.986 36.4362 111.163 36.332C111.34 36.2279 111.495 36.0898 111.628 35.918L112.07 36.2617C111.715 36.806 111.184 37.0781 110.476 37.0781ZM110.386 33.2891C110.094 33.2891 109.849 33.3958 109.652 33.6094C109.454 33.8203 109.331 34.1172 109.284 34.5H111.402V34.4453C111.381 34.0781 111.282 33.7943 111.105 33.5938C110.928 33.3906 110.688 33.2891 110.386 33.2891Z" fill="black" fill-opacity="0.56"/>
<line x1="125.5" y1="9" x2="125.5" y2="38" stroke="black"/>
<path d="M137.152 11.384V12.48H134.864V13.664H136.576V14.728H134.864V17H133.496V11.384H137.152ZM139.479 13.28C139.639 13.0347 139.839 12.8427 140.079 12.704C140.319 12.56 140.586 12.488 140.879 12.488V13.936H140.503C140.162 13.936 139.906 14.0107 139.735 14.16C139.564 14.304 139.479 14.56 139.479 14.928V17H138.111V12.536H139.479V13.28ZM145.981 14.696C145.981 14.824 145.973 14.9573 145.957 15.096H142.861C142.882 15.3733 142.97 15.5867 143.125 15.736C143.285 15.88 143.48 15.952 143.709 15.952C144.05 15.952 144.288 15.808 144.421 15.52H145.877C145.802 15.8133 145.666 16.0773 145.469 16.312C145.277 16.5467 145.034 16.7307 144.741 16.864C144.448 16.9973 144.12 17.064 143.757 17.064C143.32 17.064 142.93 16.9707 142.589 16.784C142.248 16.5973 141.981 16.3307 141.789 15.984C141.597 15.6373 141.501 15.232 141.501 14.768C141.501 14.304 141.594 13.8987 141.781 13.552C141.973 13.2053 142.24 12.9387 142.581 12.752C142.922 12.5653 143.314 12.472 143.757 12.472C144.189 12.472 144.573 12.5627 144.909 12.744C145.245 12.9253 145.506 13.184 145.693 13.52C145.885 13.856 145.981 14.248 145.981 14.696ZM144.581 14.336C144.581 14.1013 144.501 13.9147 144.341 13.776C144.181 13.6373 143.981 13.568 143.741 13.568C143.512 13.568 143.317 13.6347 143.157 13.768C143.002 13.9013 142.906 14.0907 142.869 14.336H144.581ZM148.759 17.064C148.369 17.064 148.023 16.9973 147.719 16.864C147.415 16.7307 147.175 16.5493 146.999 16.32C146.823 16.0853 146.724 15.824 146.703 15.536H148.055C148.071 15.6907 148.143 15.816 148.271 15.912C148.399 16.008 148.556 16.056 148.743 16.056C148.913 16.056 149.044 16.024 149.135 15.96C149.231 15.8907 149.279 15.8027 149.279 15.696C149.279 15.568 149.212 15.4747 149.079 15.416C148.945 15.352 148.729 15.2827 148.431 15.208C148.111 15.1333 147.844 15.056 147.631 14.976C147.417 14.8907 147.233 14.76 147.079 14.584C146.924 14.4027 146.847 14.16 146.847 13.856C146.847 13.6 146.916 13.368 147.055 13.16C147.199 12.9467 147.407 12.7787 147.679 12.656C147.956 12.5333 148.284 12.472 148.663 12.472C149.223 12.472 149.663 12.6107 149.983 12.888C150.308 13.1653 150.495 13.5333 150.543 13.992H149.279C149.257 13.8373 149.188 13.7147 149.071 13.624C148.959 13.5333 148.809 13.488 148.623 13.488C148.463 13.488 148.34 13.52 148.255 13.584C148.169 13.6427 148.127 13.7253 148.127 13.832C148.127 13.96 148.193 14.056 148.327 14.12C148.465 14.184 148.679 14.248 148.967 14.312C149.297 14.3973 149.567 14.4827 149.775 14.568C149.983 14.648 150.164 14.7813 150.319 14.968C150.479 15.1493 150.561 15.3947 150.567 15.704C150.567 15.9653 150.492 16.2 150.343 16.408C150.199 16.6107 149.988 16.7707 149.711 16.888C149.439 17.0053 149.121 17.064 148.759 17.064ZM154.387 12.488C154.899 12.488 155.31 12.6587 155.619 13C155.929 13.336 156.083 13.8 156.083 14.392V17H154.723V14.576C154.723 14.2773 154.646 14.0453 154.491 13.88C154.337 13.7147 154.129 13.632 153.867 13.632C153.606 13.632 153.398 13.7147 153.243 13.88C153.089 14.0453 153.011 14.2773 153.011 14.576V17H151.643V11.08H153.011V13.136C153.15 12.9387 153.339 12.7813 153.579 12.664C153.819 12.5467 154.089 12.488 154.387 12.488ZM158.642 11.08V17H157.274V11.08H158.642ZM164.434 12.536L161.634 19.12H160.162L161.186 16.848L159.37 12.536H160.898L161.93 15.328L162.954 12.536H164.434ZM136.896 23.12C137.221 23.1893 137.483 23.352 137.68 23.608C137.877 23.8587 137.976 24.1467 137.976 24.472C137.976 24.9413 137.811 25.3147 137.48 25.592C137.155 25.864 136.699 26 136.112 26H133.496V20.384H136.024C136.595 20.384 137.04 20.5147 137.36 20.776C137.685 21.0373 137.848 21.392 137.848 21.84C137.848 22.1707 137.76 22.4453 137.584 22.664C137.413 22.8827 137.184 23.0347 136.896 23.12ZM134.864 22.656H135.76C135.984 22.656 136.155 22.608 136.272 22.512C136.395 22.4107 136.456 22.264 136.456 22.072C136.456 21.88 136.395 21.7333 136.272 21.632C136.155 21.5307 135.984 21.48 135.76 21.48H134.864V22.656ZM135.872 24.896C136.101 24.896 136.277 24.8453 136.4 24.744C136.528 24.6373 136.592 24.4853 136.592 24.288C136.592 24.0907 136.525 23.936 136.392 23.824C136.264 23.712 136.085 23.656 135.856 23.656H134.864V24.896H135.872ZM138.737 23.76C138.737 23.3013 138.823 22.8987 138.993 22.552C139.169 22.2053 139.407 21.9387 139.705 21.752C140.004 21.5653 140.337 21.472 140.705 21.472C141.02 21.472 141.295 21.536 141.529 21.664C141.769 21.792 141.953 21.96 142.081 22.168V21.536H143.449V26H142.081V25.368C141.948 25.576 141.761 25.744 141.521 25.872C141.287 26 141.012 26.064 140.697 26.064C140.335 26.064 140.004 25.9707 139.705 25.784C139.407 25.592 139.169 25.3227 138.993 24.976C138.823 24.624 138.737 24.2187 138.737 23.76ZM142.081 23.768C142.081 23.4267 141.985 23.1573 141.793 22.96C141.607 22.7627 141.377 22.664 141.105 22.664C140.833 22.664 140.601 22.7627 140.409 22.96C140.223 23.152 140.129 23.4187 140.129 23.76C140.129 24.1013 140.223 24.3733 140.409 24.576C140.601 24.7733 140.833 24.872 141.105 24.872C141.377 24.872 141.607 24.7733 141.793 24.576C141.985 24.3787 142.081 24.1093 142.081 23.768ZM147.407 26L146.047 24.128V26H144.679V20.08H146.047V23.352L147.399 21.536H149.087L147.231 23.776L149.103 26H147.407ZM154.072 23.696C154.072 23.824 154.064 23.9573 154.048 24.096H150.952C150.974 24.3733 151.062 24.5867 151.216 24.736C151.376 24.88 151.571 24.952 151.8 24.952C152.142 24.952 152.379 24.808 152.512 24.52H153.968C153.894 24.8133 153.758 25.0773 153.56 25.312C153.368 25.5467 153.126 25.7307 152.832 25.864C152.539 25.9973 152.211 26.064 151.848 26.064C151.411 26.064 151.022 25.9707 150.68 25.784C150.339 25.5973 150.072 25.3307 149.88 24.984C149.688 24.6373 149.592 24.232 149.592 23.768C149.592 23.304 149.686 22.8987 149.872 22.552C150.064 22.2053 150.331 21.9387 150.672 21.752C151.014 21.5653 151.406 21.472 151.848 21.472C152.28 21.472 152.664 21.5627 153 21.744C153.336 21.9253 153.598 22.184 153.784 22.52C153.976 22.856 154.072 23.248 154.072 23.696ZM152.672 23.336C152.672 23.1013 152.592 22.9147 152.432 22.776C152.272 22.6373 152.072 22.568 151.832 22.568C151.603 22.568 151.408 22.6347 151.248 22.768C151.094 22.9013 150.998 23.0907 150.96 23.336H152.672ZM154.762 23.76C154.762 23.3013 154.847 22.8987 155.018 22.552C155.194 22.2053 155.431 21.9387 155.73 21.752C156.029 21.5653 156.362 21.472 156.73 21.472C157.023 21.472 157.29 21.5333 157.53 21.656C157.775 21.7787 157.967 21.944 158.106 22.152V20.08H159.474V26H158.106V25.36C157.978 25.5733 157.794 25.744 157.554 25.872C157.319 26 157.045 26.064 156.73 26.064C156.362 26.064 156.029 25.9707 155.73 25.784C155.431 25.592 155.194 25.3227 155.018 24.976C154.847 24.624 154.762 24.2187 154.762 23.76ZM158.106 23.768C158.106 23.4267 158.01 23.1573 157.818 22.96C157.631 22.7627 157.402 22.664 157.13 22.664C156.858 22.664 156.626 22.7627 156.434 22.96C156.247 23.152 156.154 23.4187 156.154 23.76C156.154 24.1013 156.247 24.3733 156.434 24.576C156.626 24.7733 156.858 24.872 157.13 24.872C157.402 24.872 157.631 24.7733 157.818 24.576C158.01 24.3787 158.106 24.1093 158.106 23.768ZM134.864 30.48V31.616H136.696V32.672H134.864V33.904H136.936V35H133.496V29.384H136.936V30.48H134.864ZM140.072 33.72L141.04 30.536H142.496L140.912 35H139.224L137.64 30.536H139.104L140.072 33.72ZM147.52 32.696C147.52 32.824 147.512 32.9573 147.496 33.096H144.4C144.421 33.3733 144.509 33.5867 144.664 33.736C144.824 33.88 145.019 33.952 145.248 33.952C145.589 33.952 145.827 33.808 145.96 33.52H147.416C147.341 33.8133 147.205 34.0773 147.008 34.312C146.816 34.5467 146.573 34.7307 146.28 34.864C145.987 34.9973 145.659 35.064 145.296 35.064C144.859 35.064 144.469 34.9707 144.128 34.784C143.787 34.5973 143.52 34.3307 143.328 33.984C143.136 33.6373 143.04 33.232 143.04 32.768C143.04 32.304 143.133 31.8987 143.32 31.552C143.512 31.2053 143.779 30.9387 144.12 30.752C144.461 30.5653 144.853 30.472 145.296 30.472C145.728 30.472 146.112 30.5627 146.448 30.744C146.784 30.9253 147.045 31.184 147.232 31.52C147.424 31.856 147.52 32.248 147.52 32.696ZM146.12 32.336C146.12 32.1013 146.04 31.9147 145.88 31.776C145.72 31.6373 145.52 31.568 145.28 31.568C145.051 31.568 144.856 31.6347 144.696 31.768C144.541 31.9013 144.445 32.0907 144.408 32.336H146.12ZM149.85 31.28C150.01 31.0347 150.21 30.8427 150.45 30.704C150.69 30.56 150.956 30.488 151.25 30.488V31.936H150.874C150.532 31.936 150.276 32.0107 150.106 32.16C149.935 32.304 149.85 32.56 149.85 32.928V35H148.482V30.536H149.85V31.28ZM156.703 30.536L153.903 37.12H152.431L153.455 34.848L151.639 30.536H153.167L154.199 33.328L155.223 30.536H156.703ZM157.166 32.76C157.166 32.3013 157.252 31.8987 157.422 31.552C157.598 31.2053 157.836 30.9387 158.134 30.752C158.433 30.5653 158.766 30.472 159.134 30.472C159.428 30.472 159.694 30.5333 159.934 30.656C160.18 30.7787 160.372 30.944 160.51 31.152V29.08H161.878V35H160.51V34.36C160.382 34.5733 160.198 34.744 159.958 34.872C159.724 35 159.449 35.064 159.134 35.064C158.766 35.064 158.433 34.9707 158.134 34.784C157.836 34.592 157.598 34.3227 157.422 33.976C157.252 33.624 157.166 33.2187 157.166 32.76ZM160.51 32.768C160.51 32.4267 160.414 32.1573 160.222 31.96C160.036 31.7627 159.806 31.664 159.534 31.664C159.262 31.664 159.03 31.7627 158.838 31.96C158.652 32.152 158.558 32.4187 158.558 32.76C158.558 33.1013 158.652 33.3733 158.838 33.576C159.03 33.7733 159.262 33.872 159.534 33.872C159.806 33.872 160.036 33.7733 160.222 33.576C160.414 33.3787 160.51 33.1093 160.51 32.768ZM162.836 32.76C162.836 32.3013 162.921 31.8987 163.092 31.552C163.268 31.2053 163.505 30.9387 163.804 30.752C164.103 30.5653 164.436 30.472 164.804 30.472C165.119 30.472 165.393 30.536 165.628 30.664C165.868 30.792 166.052 30.96 166.18 31.168V30.536H167.548V35H166.18V34.368C166.047 34.576 165.86 34.744 165.62 34.872C165.385 35 165.111 35.064 164.796 35.064C164.433 35.064 164.103 34.9707 163.804 34.784C163.505 34.592 163.268 34.3227 163.092 33.976C162.921 33.624 162.836 33.2187 162.836 32.76ZM166.18 32.768C166.18 32.4267 166.084 32.1573 165.892 31.96C165.705 31.7627 165.476 31.664 165.204 31.664C164.932 31.664 164.7 31.7627 164.508 31.96C164.321 32.152 164.228 32.4187 164.228 32.76C164.228 33.1013 164.321 33.3733 164.508 33.576C164.7 33.7733 164.932 33.872 165.204 33.872C165.476 33.872 165.705 33.7733 165.892 33.576C166.084 33.3787 166.18 33.1093 166.18 32.768ZM173.338 30.536L170.538 37.12H169.066L170.09 34.848L168.274 30.536H169.802L170.834 33.328L171.858 30.536H173.338ZM175.872 29.184L175.712 33.016H174.552L174.392 29.184H175.872ZM175.152 35.064C174.912 35.064 174.715 34.9947 174.56 34.856C174.411 34.712 174.336 34.536 174.336 34.328C174.336 34.1147 174.411 33.936 174.56 33.792C174.715 33.648 174.912 33.576 175.152 33.576C175.387 33.576 175.579 33.648 175.728 33.792C175.883 33.936 175.96 34.1147 175.96 34.328C175.96 34.536 175.883 34.712 175.728 34.856C175.579 34.9947 175.387 35.064 175.152 35.064Z" fill="black"/>
</svg>
